#Comment line ignore any data following # character 
#Hierarchical Translation and Rotation (.htr) file 
[Header]	
#Header keywords are followed by a single value 
FileType HTR		#Single word string
DataType HTRS		#Translation followed by rotation and scale data
FileVersion 1		#integer
NumSegments 64		#integer
NumFrames 2		#integer
DataFrameRate 30		#integer, data frame rate in this file
EulerRotationOrder ZYX
CalibrationUnits mm
RotationUnits Degrees
GlobalAxisofGravity Y
BoneLengthAxis Y
ScaleFactor 1.00
[SegmentNames&Hierarchy]
#CHILD	PARENT
Pinger_Root GLOBAL
Pelvis Pinger_Root
L_Hip Pelvis
R_Hip Pelvis
Rear_Leg01 Pelvis
Spine1 Pelvis
L_Leg01 L_Hip
L_Leg02 L_Leg01
L_Leg03 L_Leg02
L_Foot L_Leg03
L_Toe1_01 L_Foot
L_Toe2_01 L_Foot
L_Toe3_01 L_Foot
planeAlignerLeft L_Foot
L_Toe1_02 L_Toe1_01
L_Toe1_03 L_Toe1_02
L_Toe2_02 L_Toe2_01
L_Toe2_03 L_Toe2_02
L_Toe3_02 L_Toe3_01
L_Toe3_03 L_Toe3_02
planeLockWeightLeft planeAlignerLeft
R_Leg01 R_Hip
R_Leg02 R_Leg01
R_Leg03 R_Leg02
R_Foot R_Leg03
planeAlignerRight R_Foot
R_Toe1_01 R_Foot
R_Toe2_01 R_Foot
R_Toe3_01 R_Foot
planeLockWeightRight planeAlignerRight
R_Toe1_02 R_Toe1_01
R_Toe1_03 R_Toe1_02
R_Toe2_02 R_Toe2_01
R_Toe2_03 R_Toe2_02
R_Toe3_02 R_Toe3_01
R_Toe3_03 R_Toe3_02
Rear_Leg02 Rear_Leg01
Rear_Leg03 Rear_Leg02
Rear_Leg04 Rear_Leg03
Rear_Foot Rear_Leg04
planeAlignerCenter Rear_Foot
Rear_Toe1_01 Rear_Foot
Rear_Toe2_01 Rear_Foot
Rear_Toe3_01 Rear_Foot
planeLockWeightCenter planeAlignerCenter
Rear_Toe1_02 Rear_Toe1_01
Rear_Toe1_03 Rear_Toe1_02
Rear_Toe2_02 Rear_Toe2_01
Rear_Toe2_03 Rear_Toe2_02
Rear_Toe3_02 Rear_Toe3_01
Rear_Toe3_03 Rear_Toe3_02
Back_Bone Spine1
Head Spine1
Motor_Bone Back_Bone
Ping_Mechanism Back_Bone
BN_LookIK Head
bottomMouth Head
L_Mouth01 Head
L_mouthFront Head
mouthGun Head
R_Mouth01 Head
R_mouthFront Head
TopMouth Head
weapon_bone Head
[BasePosition]
#SegmentName Tx, Ty, Tz, Rx, Ry, Rz, BoneLength
Pinger_Root 0.000000 0.000000 0.000000 -90.000000 0.000000 0.000000 10.000000 
Pelvis 0.000000 0.000000 0.000000 0.000000 0.000000 0.000000 10.000000 
L_Hip 0.000000 0.000000 0.000000 0.000000 0.000000 0.000000 10.000000 
R_Hip 0.000000 0.000000 0.000000 0.000000 0.000000 0.000000 10.000000 
Rear_Leg01 0.000000 0.000000 0.000000 0.000000 0.000000 0.000000 10.000000 
Spine1 0.000000 0.000000 0.000000 0.000000 0.000000 0.000000 10.000000 
L_Leg01 0.000000 0.000000 0.000000 0.000000 0.000000 0.000000 10.000000 
L_Leg02 0.000000 0.000000 0.000000 0.000000 0.000000 0.000000 10.000000 
L_Leg03 0.000000 0.000000 0.000000 0.000000 0.000000 0.000000 10.000000 
L_Foot 0.000000 0.000000 0.000000 0.000000 0.000000 0.000000 10.000000 
L_Toe1_01 0.000000 0.000000 0.000000 0.000000 0.000000 0.000000 10.000000 
L_Toe2_01 0.000000 0.000000 0.000000 0.000000 0.000000 0.000000 10.000000 
L_Toe3_01 0.000000 0.000000 0.000000 0.000000 0.000000 0.000000 10.000000 
planeAlignerLeft 0.000000 0.000000 0.000000 0.000000 0.000000 0.000000 10.000000 
L_Toe1_02 0.000000 0.000000 0.000000 0.000000 0.000000 0.000000 10.000000 
L_Toe1_03 0.000000 0.000000 0.000000 0.000000 0.000000 0.000000 10.000000 
L_Toe2_02 0.000000 0.000000 0.000000 0.000000 0.000000 0.000000 10.000000 
L_Toe2_03 0.000000 0.000000 0.000000 0.000000 0.000000 0.000000 10.000000 
L_Toe3_02 0.000000 0.000000 0.000000 0.000000 0.000000 0.000000 10.000000 
L_Toe3_03 0.000000 0.000000 0.000000 0.000000 0.000000 0.000000 10.000000 
planeLockWeightLeft 0.000000 0.000000 0.000000 0.000000 0.000000 0.000000 10.000000 
R_Leg01 0.000000 0.000000 0.000000 0.000000 0.000000 0.000000 10.000000 
R_Leg02 0.000000 0.000000 0.000000 0.000000 0.000000 0.000000 10.000000 
R_Leg03 0.000000 0.000000 0.000000 0.000000 0.000000 0.000000 10.000000 
R_Foot 0.000000 0.000000 0.000000 0.000000 0.000000 0.000000 10.000000 
planeAlignerRight 0.000000 0.000000 0.000000 0.000000 0.000000 0.000000 10.000000 
R_Toe1_01 0.000000 0.000000 0.000000 0.000000 0.000000 0.000000 10.000000 
R_Toe2_01 0.000000 0.000000 0.000000 0.000000 0.000000 0.000000 10.000000 
R_Toe3_01 0.000000 0.000000 0.000000 0.000000 0.000000 0.000000 10.000000 
planeLockWeightRight 0.000000 0.000000 0.000000 0.000000 0.000000 0.000000 10.000000 
R_Toe1_02 0.000000 0.000000 0.000000 0.000000 0.000000 0.000000 10.000000 
R_Toe1_03 0.000000 0.000000 0.000000 0.000000 0.000000 0.000000 10.000000 
R_Toe2_02 0.000000 0.000000 0.000000 0.000000 0.000000 0.000000 10.000000 
R_Toe2_03 0.000000 0.000000 0.000000 0.000000 0.000000 0.000000 10.000000 
R_Toe3_02 0.000000 0.000000 0.000000 0.000000 0.000000 0.000000 10.000000 
R_Toe3_03 0.000000 0.000000 0.000000 0.000000 0.000000 0.000000 10.000000 
Rear_Leg02 0.000000 0.000000 0.000000 0.000000 0.000000 0.000000 10.000000 
Rear_Leg03 0.000000 0.000000 0.000000 0.000000 0.000000 0.000000 10.000000 
Rear_Leg04 0.000000 0.000000 0.000000 0.000000 0.000000 0.000000 10.000000 
Rear_Foot 0.000000 0.000000 0.000000 0.000000 0.000000 0.000000 10.000000 
planeAlignerCenter 0.000000 0.000000 0.000000 0.000000 0.000000 0.000000 10.000000 
Rear_Toe1_01 0.000000 0.000000 0.000000 0.000000 0.000000 0.000000 10.000000 
Rear_Toe2_01 0.000000 0.000000 0.000000 0.000000 0.000000 0.000000 10.000000 
Rear_Toe3_01 0.000000 0.000000 0.000000 0.000000 0.000000 0.000000 10.000000 
planeLockWeightCenter 0.000000 0.000000 0.000000 0.000000 0.000000 0.000000 10.000000 
Rear_Toe1_02 0.000000 0.000000 0.000000 0.000000 0.000000 0.000000 10.000000 
Rear_Toe1_03 0.000000 0.000000 0.000000 0.000000 0.000000 0.000000 10.000000 
Rear_Toe2_02 0.000000 0.000000 0.000000 0.000000 0.000000 0.000000 10.000000 
Rear_Toe2_03 0.000000 0.000000 0.000000 0.000000 0.000000 0.000000 10.000000 
Rear_Toe3_02 0.000000 0.000000 0.000000 0.000000 0.000000 0.000000 10.000000 
Rear_Toe3_03 0.000000 0.000000 0.000000 0.000000 0.000000 0.000000 10.000000 
Back_Bone 0.000000 0.000000 0.000000 0.000000 0.000000 0.000000 10.000000 
Head 0.000000 0.000000 0.000000 0.000000 0.000000 0.000000 10.000000 
Motor_Bone 0.000000 0.000000 0.000000 0.000000 0.000000 0.000000 10.000000 
Ping_Mechanism 0.000000 0.000000 0.000000 0.000000 0.000000 0.000000 10.000000 
BN_LookIK 0.000000 0.000000 0.000000 0.000000 0.000000 0.000000 10.000000 
bottomMouth 0.000000 0.000000 0.000000 0.000000 0.000000 0.000000 10.000000 
L_Mouth01 0.000000 0.000000 0.000000 0.000000 0.000000 0.000000 10.000000 
L_mouthFront 0.000000 0.000000 0.000000 0.000000 0.000000 0.000000 10.000000 
mouthGun 0.000000 0.000000 0.000000 0.000000 0.000000 0.000000 10.000000 
R_Mouth01 0.000000 0.000000 0.000000 0.000000 0.000000 0.000000 10.000000 
R_mouthFront 0.000000 0.000000 0.000000 0.000000 0.000000 0.000000 10.000000 
TopMouth 0.000000 0.000000 0.000000 0.000000 0.000000 0.000000 10.000000 
weapon_bone 0.000000 0.000000 0.000000 0.000000 0.000000 0.000000 10.000000 
#Beginning of Data. Separated by tabs
#Fr	Tx	Ty	Tz	Rx	Ry	Rz	SF
[Pinger_Root]
32 0.000000 0.000000 0.000000 -0.000075 -0.000000 -0.000020 0.000000
33 0.000000 0.000000 0.000000 -0.000075 -0.000000 -0.000020 0.000000
[Pelvis]
32 55.885544 1040.794189 4377.880371 -111.715584 -84.243744 104.004005 4500.246094
33 56.184036 1028.321777 4407.403320 -106.630363 -84.568550 98.947929 4526.125000
[L_Hip]
32 5.766392 125.831482 872.656799 160.158691 -45.484905 122.312202 881.701050
33 5.766392 125.831482 872.656799 160.158691 -45.484905 122.312202 881.701050
[R_Hip]
32 5.765438 125.836372 -872.654907 43.294121 54.541576 129.443008 881.699829
33 5.765438 125.836372 -872.654907 41.226643 52.677395 128.002914 881.699829
[Rear_Leg01]
32 -192.298416 -925.602966 -0.001907 169.315964 2.254009 -153.551682 945.367432
33 -192.298416 -925.602966 -0.001907 169.538132 2.398078 -155.373596 945.367432
[Spine1]
32 290.604584 5.007505 0.000477 7.658498 0.565762 15.317051 290.647736
33 290.604584 5.007505 0.000477 7.525556 0.140617 15.742270 290.647736
[L_Leg01]
32 761.932007 -0.002384 -0.069261 25.318439 -10.506986 -15.615845 761.932068
33 761.932007 -0.002384 -0.069261 25.030678 -11.046664 -16.547588 761.932068
[L_Leg02]
32 1441.140503 -0.000954 -0.000715 3.911543 0.269078 -126.130371 1441.140503
33 1441.140503 -0.000954 -0.000715 3.537987 0.159530 -124.296341 1441.140503
[L_Leg03]
32 1686.963989 -0.000715 -0.000954 -0.064062 0.032562 127.099785 1686.963989
33 1686.963989 -0.000715 -0.000954 -0.057780 0.029669 125.770180 1686.963989
[L_Foot]
32 3041.570068 -30.715107 11.297464 1.839260 13.042140 53.288849 3041.746094
33 3041.570068 -30.715107 11.297464 1.959124 13.123856 53.070438 3041.746094
[L_Toe1_01]
32 -188.216690 -224.732346 -21.137953 93.736916 -6.880936 -172.077423 293.899567
33 -188.216690 -224.732346 -21.137953 93.734375 -6.878307 -172.062134 293.899567
[L_Toe2_01]
32 200.746536 -219.926590 148.838394 -90.037025 -26.331121 -52.638271 332.896027
33 200.746536 -219.926590 148.838394 -90.035156 -26.328348 -52.643898 332.896027
[L_Toe3_01]
32 188.832520 -219.859131 -191.078659 -99.764458 13.780097 -67.585182 347.140900
33 188.832520 -219.859131 -191.078659 -99.788063 13.839004 -67.673027 347.140900
[planeAlignerLeft]
32 0.812531 -811.448792 -0.314951 0.000000 -90.000000 -90.001900 811.449280
33 0.812531 -811.448792 -0.314951 0.000000 -90.000000 -90.001900 811.449280
[L_Toe1_02]
32 413.761139 0.000477 0.000000 0.001384 -25.980629 0.001384 413.761139
33 413.761139 0.000477 0.000000 0.001384 -25.985245 0.001384 413.761139
[L_Toe1_03]
32 464.317322 0.000358 -0.000089 0.003769 53.713612 0.003769 464.317322
33 464.317322 0.000358 -0.000089 0.003733 53.353565 0.003733 464.317322
[L_Toe2_02]
32 342.235809 -0.000477 0.000238 0.001188 -72.265892 0.001188 342.235809
33 342.235809 -0.000477 0.000238 0.001188 -72.402000 0.001188 342.235809
[L_Toe2_03]
32 420.210846 -0.000715 0.000000 0.027797 85.160370 0.027797 420.210846
33 420.210846 -0.000715 0.000000 0.029090 85.375427 0.029090 420.210846
[L_Toe3_02]
32 329.270111 0.000954 0.000000 0.001178 -80.454430 0.001178 329.270111
33 329.270111 0.000954 0.000000 0.001178 -80.458069 0.001178 329.270111
[L_Toe3_03]
32 439.137451 -0.001907 0.000954 -179.995880 78.772110 -179.992371 439.137451
33 439.137451 -0.001907 0.000954 -179.995926 78.688927 -179.992416 439.137451
[planeLockWeightLeft]
32 -0.000954 0.000238 -0.000305 -0.011826 -0.004376 0.005620 0.001029
33 -0.000954 0.000238 -0.000305 -0.011826 -0.004376 0.005620 0.001029
[R_Leg01]
32 761.455627 -0.001907 -0.000358 116.584213 1.608241 44.406139 761.455688
33 761.455627 -0.001907 -0.000358 118.074974 0.262871 42.071922 761.455688
[R_Leg02]
32 1441.140625 0.000000 -0.000238 -0.582960 0.065138 -87.970398 1441.140625
33 1441.140625 0.000000 -0.000238 -0.746018 0.018703 -94.934944 1441.140625
[R_Leg03]
32 1686.963989 0.000954 0.001431 0.061993 -0.031629 126.721146 1686.963989
33 1686.963989 0.000954 0.001431 0.068150 -0.034775 128.306412 1686.963989
[R_Foot]
32 3041.560059 -30.531288 -11.204481 1.660210 -24.703585 43.278740 3041.734131
33 3041.560059 -30.531288 -11.204481 1.346191 -24.751373 46.062653 3041.734131
[planeAlignerRight]
32 -0.635147 -812.270569 -0.364304 0.000000 -89.960434 -90.005180 812.270874
33 -0.635147 -812.270569 -0.364304 0.000000 -89.960434 -90.005180 812.270874
[R_Toe1_01]
32 -188.383347 -224.864899 21.052242 77.969513 1.268096 -172.590744 294.101532
33 -188.383347 -224.864899 21.052242 77.595390 0.810546 -173.020325 294.101532
[R_Toe2_01]
32 200.637817 -220.002121 -148.787384 -87.505585 43.330265 -45.506695 332.857574
33 200.637817 -220.002121 -148.787384 -89.254250 40.483814 -49.776577 332.857574
[R_Toe3_01]
32 188.606735 -220.092957 191.126343 -76.488716 -14.816337 -59.497910 347.192566
33 188.606735 -220.092957 191.126343 -75.396637 -13.078015 -63.619095 347.192566
[planeLockWeightRight]
32 -0.000477 0.000000 0.000000 -0.011823 -0.004379 -0.000027 0.000477
33 -0.000477 0.000000 0.000000 -0.011823 -0.004379 -0.000027 0.000477
[R_Toe1_02]
32 413.762085 0.000477 -0.000119 0.001404 -23.440836 0.001404 413.762085
33 413.762085 0.000477 -0.000119 0.001386 -25.733835 0.001386 413.762085
[R_Toe1_03]
32 464.317810 0.000000 0.001088 0.000762 33.804035 -0.003202 464.317810
33 464.317810 0.000000 0.001088 0.003197 46.931686 0.003197 464.317810
[R_Toe2_02]
32 342.234741 -0.000954 0.000238 -0.002334 -78.870094 -0.002334 342.234741
33 342.234741 -0.000954 0.000238 -0.002337 -77.385918 -0.002337 342.234741
[R_Toe2_03]
32 420.210846 0.000715 -0.000268 -179.994781 70.735634 -179.998337 420.210846
33 420.210846 0.000715 -0.000268 -179.992737 77.999939 -179.996262 420.210846
[R_Toe3_02]
32 329.270355 -0.000477 -0.000954 0.001175 -84.325775 0.001175 329.270355
33 329.270355 -0.000477 -0.000954 0.001176 -83.381859 0.001176 329.270355
[R_Toe3_03]
32 439.137939 0.000238 0.001431 -179.996094 54.263161 -179.988754 439.137939
33 439.137939 0.000238 0.001431 -179.999298 63.459118 -179.995697 439.137939
[Rear_Leg02]
32 1162.777710 -0.029802 0.005960 0.614942 -3.179599 -114.485947 1162.777710
33 1162.777710 -0.029802 0.005960 0.556179 -3.157946 -115.599243 1162.777710
[Rear_Leg03]
32 607.192505 -0.013351 -0.073195 0.006478 -0.002099 64.123108 607.192505
33 607.192505 -0.013351 -0.073195 0.006486 -0.002076 63.715080 607.192505
[Rear_Leg04]
32 995.874512 -0.020504 -0.011921 -0.040472 -0.015282 57.899918 995.874573
33 995.874512 -0.020504 -0.011921 -0.040363 -0.015566 57.093246 995.874573
[Rear_Foot]
32 3096.176270 -0.067472 -0.041425 -141.440262 85.620865 50.770805 3096.176270
33 3096.176270 -0.067472 -0.041425 -141.538010 85.682487 50.915810 3096.176270
[planeAlignerCenter]
32 0.350077 0.966311 -838.790894 0.000009 0.000003 -179.999985 838.791565
33 0.350077 0.966311 -838.790894 0.000009 0.000003 -179.999985 838.791565
[Rear_Toe1_01]
32 0.653352 83.966492 -371.173737 0.295769 41.914112 90.416115 380.553192
33 0.653352 83.966492 -371.173737 0.294669 41.914112 90.415672 380.553192
[Rear_Toe2_01]
32 178.200760 -294.826019 -362.060547 -7.196267 34.406261 -66.271294 499.765686
33 178.200760 -294.826019 -362.060547 -7.196267 34.406261 -66.271294 499.765686
[Rear_Toe3_01]
32 -153.359680 -308.780914 -362.060852 3.289418 33.518005 -112.540970 499.952881
33 -153.359680 -308.780914 -362.060852 3.289418 33.518005 -112.540970 499.952881
[planeLockWeightCenter]
32 -0.000062 0.000238 0.000000 -0.011814 -0.004373 -0.000015 0.000246
33 -0.000062 0.000238 0.000000 -0.011814 -0.004373 -0.000015 0.000246
[Rear_Toe1_02]
32 379.707825 0.194073 0.000477 -0.000242 -31.676744 0.006934 379.707855
33 379.707825 0.194073 0.000477 -0.000242 -31.676744 0.006934 379.707855
[Rear_Toe1_03]
32 500.129700 0.165701 0.000119 -0.000103 51.902481 0.007295 500.129761
33 500.129700 0.165701 0.000119 -0.000103 51.902481 0.007295 500.129761
[Rear_Toe2_02]
32 340.494507 0.000238 -0.000954 0.001192 -69.854523 0.001192 340.494507
33 340.494507 0.000238 -0.000954 0.001192 -69.854523 0.001192 340.494507
[Rear_Toe2_03]
32 433.103577 0.000000 0.000238 0.006696 69.810326 0.006696 433.103546
33 433.103577 0.000000 0.000238 0.006696 69.810326 0.006696 433.103546
[Rear_Toe3_02]
32 340.494141 -0.000358 -0.000477 0.008288 -67.274704 -0.009460 340.494171
33 340.494141 -0.000358 -0.000477 0.008288 -67.274704 -0.009460 340.494171
[Rear_Toe3_03]
32 433.103577 0.001431 -0.000238 -0.000972 65.958984 -0.004547 433.103546
33 433.103577 0.001431 -0.000238 -0.000972 65.958984 -0.004547 433.103546
[Back_Bone]
32 1312.175781 -701.934692 0.000954 0.890184 2.200385 -87.913322 1488.125488
33 1312.175781 -701.934692 0.000954 1.080425 1.775905 -87.777657 1488.125488
[Head]
32 1406.159424 809.709290 0.001431 -0.665590 1.122657 13.688581 1622.625488
33 1406.159424 809.709290 0.001431 -0.588858 0.855055 12.132413 1622.625488
[Motor_Bone]
32 1158.364380 -417.834747 0.000477 -0.000105 0.000046 -105.985291 1231.419434
33 1158.364380 -417.834747 0.000477 -0.000105 0.000046 -105.985291 1231.419434
[Ping_Mechanism]
32 1242.218628 -442.374268 -5.497167 0.000103 -0.000053 82.120995 1318.647827
33 1240.523193 -442.262573 -3.415149 0.000103 -0.000053 82.120995 1317.006348
[BN_LookIK]
32 193.241119 1380.371704 -0.002861 0.000000 89.965736 -31.038179 1393.832153
33 193.241119 1380.371704 -0.002861 0.000000 89.965736 -31.038179 1393.832153
[bottomMouth]
32 -435.092926 615.759399 -0.000954 -0.000022 0.000016 73.527184 753.966492
33 -435.092926 615.759399 -0.000954 -0.000022 0.000016 73.527184 753.966492
[L_Mouth01]
32 554.440979 7.658243 838.222046 150.204178 23.759130 109.605339 1005.027161
33 554.440979 7.658243 838.222046 150.204178 23.759130 109.605339 1005.027161
[L_mouthFront]
32 551.629089 934.514771 339.150421 0.000081 2.804060 79.119301 1136.941284
33 551.629089 934.514771 339.150421 0.000081 2.804060 79.119301 1136.941284
[mouthGun]
32 55.332661 1627.420898 0.000000 0.000023 0.000009 -11.038128 1628.361328
33 55.332661 1627.420898 0.000000 0.000023 0.000009 -11.038128 1628.361328
[R_Mouth01]
32 554.442383 7.659197 -838.223938 29.795891 -23.759109 109.605331 1005.029541
33 554.442383 7.659197 -838.223938 29.795891 -23.759109 109.605331 1005.029541
[R_mouthFront]
32 551.629089 934.514282 -339.151367 0.000029 -2.803930 79.119133 1136.941162
33 551.629089 934.514282 -339.151367 0.000029 -2.803930 79.119133 1136.941162
[TopMouth]
32 461.269867 -56.106091 -0.008583 -0.000059 -0.000268 92.025169 464.669525
33 461.269867 -56.106091 -0.008583 -0.000059 -0.000268 92.025169 464.669525
[weapon_bone]
32 -987.239868 1448.372803 0.001431 0.000000 89.965736 -31.038221 1752.833740
33 -987.239868 1448.372803 0.001431 0.000000 89.965736 -31.038221 1752.833740
